<svg width="24" height="24" viewBox="0 0 24 24" fill="none" xmlns="http://www.w3.org/2000/svg">
<path fill-rule="evenodd" clip-rule="evenodd" d="M16.1946 2H7.6019C4.24211 2 1.98242 4.38 1.98242 7.92V16.09C1.98242 19.62 4.24211 22 7.6019 22H16.1946C19.5544 22 21.8042 19.62 21.8042 16.09V7.92C21.8042 4.38 19.5544 2 16.1946 2" fill="#000"/>
<path fill-rule="evenodd" clip-rule="evenodd" d="M11.0255 8.18945C11.0255 8.67145 11.413 9.06445 11.8878 9.06445C12.3764 9.06445 12.7649 8.67145 12.7649 8.18945C12.7649 7.70745 12.3764 7.31445 11.8977 7.31445C11.417 7.31445 11.0255 7.70745 11.0255 8.18945ZM12.7549 11.3623C12.7549 10.8803 12.3654 10.4873 11.8877 10.4873C11.41 10.4873 11.0205 10.8803 11.0205 11.3623V15.7823C11.0205 16.2643 11.41 16.6573 11.8877 16.6573C12.3654 16.6573 12.7549 16.2643 12.7549 15.7823V11.3623Z" fill="#E94057"/>
</svg>