<svg width="15" height="19" viewBox="0 0 15 19" fill="none" xmlns="http://www.w3.org/2000/svg">
<path fill-rule="evenodd" clip-rule="evenodd" d="M3.93748 4.35425C3.93748 2.38674 5.53246 0.791748 7.49998 0.791748C9.4675 0.791748 11.0625 2.38674 11.0625 4.35425V9.50008C11.0625 11.4676 9.4675 13.0626 7.49998 13.0626C5.53246 13.0626 3.93748 11.4676 3.93748 9.50008V4.35425ZM7.49998 2.37508C6.40691 2.37508 5.52081 3.26118 5.52081 4.35425V9.50008C5.52081 10.5931 6.40691 11.4792 7.49998 11.4792C8.59305 11.4792 9.47915 10.5931 9.47915 9.50008V4.35425C9.47915 3.26118 8.59305 2.37508 7.49998 2.37508ZM1.56248 8.31258C1.99971 8.31258 2.35415 8.66702 2.35415 9.10425C2.35415 11.9462 4.658 14.2501 7.49998 14.2501C10.342 14.2501 12.6458 11.9462 12.6458 9.10425C12.6458 8.66702 13.0003 8.31258 13.4375 8.31258C13.8747 8.31258 14.2291 8.66702 14.2291 9.10425C14.2291 12.5528 11.635 15.3955 8.29165 15.7873V17.4167C8.29165 17.854 7.93721 18.2084 7.49998 18.2084C7.06276 18.2084 6.70831 17.854 6.70831 17.4167V15.7873C3.36496 15.3955 0.770813 12.5528 0.770813 9.10425C0.770813 8.66702 1.12525 8.31258 1.56248 8.31258Z" fill="#000"/>
</svg>
