<svg width="729" height="668" viewBox="0 0 729 668" fill="none" xmlns="http://www.w3.org/2000/svg">
<g clip-path="url(#clip0_10_5)">
<g filter="url(#filter0_d_10_5)">
<path d="M441.672 265.969C441.672 265.969 383.926 334.015 405.651 424.878C427.376 515.741 513.06 589.841 622.017 546.755C730.973 503.67 763.417 296.472 677.963 177.352C592.512 58.2316 457.571 -44.923 244.555 20.1637C31.5395 85.2501 -138.629 433.434 163.318 668C163.318 668 70.4803 568.282 79.6503 440.058C88.8203 311.832 172.879 180.554 329.533 149.261C329.533 149.261 198.096 236.271 194.276 381.287C190.454 526.303 273.749 685.822 511.404 664.45C511.404 664.45 390.158 635.317 352.29 512.997C314.421 390.675 403.75 291.75 441.672 265.969Z" fill="url(#paint0_linear_10_5)"/>
</g>
<path d="M511.403 664.446C273.749 685.822 190.458 526.303 194.276 381.284C198.002 239.673 323.442 153.371 329.319 149.404C290.098 185.888 230.702 256.832 228.154 353.621C224.927 476.204 283.935 609.146 445.809 634.441C480.956 657.13 511.403 664.446 511.403 664.446Z" fill="url(#paint1_linear_10_5)"/>
<path d="M696.081 474.817C678.385 508.382 653.371 534.371 622.018 546.759C513.063 589.839 427.376 515.74 405.649 424.879C384.067 334.619 440.915 266.862 441.66 265.974L441.668 265.966C426.953 294.161 410.721 341.029 423.947 396.345C445.673 487.206 531.352 561.306 640.315 518.226C662.058 509.625 680.766 494.488 696.081 474.817Z" fill="url(#paint2_linear_10_5)"/>
</g>
<defs>
<filter id="filter0_d_10_5" x="-4" y="0" width="734.603" height="676" filterUnits="userSpaceOnUse" color-interpolation-filters="sRGB">
<feFlood flood-opacity="0" result="BackgroundImageFix"/>
<feColorMatrix in="SourceAlpha" type="matrix" values="0 0 0 0 0 0 0 0 0 0 0 0 0 0 0 0 0 0 127 0" result="hardAlpha"/>
<feOffset dy="4"/>
<feGaussianBlur stdDeviation="2"/>
<feComposite in2="hardAlpha" operator="out"/>
<feColorMatrix type="matrix" values="0 0 0 0 0 0 0 0 0 0 0 0 0 0 0 0 0 0 0.25 0"/>
<feBlend mode="normal" in2="BackgroundImageFix" result="effect1_dropShadow_10_5"/>
<feBlend mode="normal" in="SourceGraphic" in2="effect1_dropShadow_10_5" result="shape"/>
</filter>
<linearGradient id="paint0_linear_10_5" x1="42.8982" y1="531.405" x2="673.248" y2="167.035" gradientUnits="userSpaceOnUse">
<stop offset="0.0905222" stop-color="#636AF5"/>
<stop offset="0.6" stop-color="#000DFF"/>
<stop offset="1" stop-color="#6B73FF"/>
</linearGradient>
<linearGradient id="paint1_linear_10_5" x1="196.496" y1="316.435" x2="583.317" y2="540.037" gradientUnits="userSpaceOnUse">
<stop offset="2.42203e-07" stop-color="#1521FF"/>
<stop offset="0.7" stop-color="#8D91E4" stop-opacity="0"/>
</linearGradient>
<linearGradient id="paint2_linear_10_5" x1="400.761" y1="412.658" x2="696.081" y2="412.658" gradientUnits="userSpaceOnUse">
<stop stop-color="#1521FF"/>
<stop offset="0.5" stop-color="#8D91E4"/>
</linearGradient>
<clipPath id="clip0_10_5">
<rect width="729" height="668" fill="white"/>
</clipPath>
</defs>
</svg>
